<svg width="18" height="14" viewBox="0 0 18 14" fill="none" xmlns="http://www.w3.org/2000/svg">
<path d="M17.2667 3.47026V10.7684C17.2667 12.0302 16.2443 13.0526 14.9825 13.0526H3.01761C2.4118 13.0526 1.8308 12.812 1.40243 12.3836C0.974056 11.9552 0.733398 11.3742 0.733398 10.7684V3.47026L8.73814 7.87335C8.9013 7.96298 9.09926 7.96298 9.26199 7.87335L17.2667 3.46982V3.47026ZM14.9825 9.82353e-09C15.5788 5.54108e-05 16.1514 0.233274 16.5781 0.649837C17.0047 1.0664 17.2516 1.63328 17.2659 2.22939L9.00006 6.77606L0.734269 2.22895L0.735139 2.1898C0.759505 1.6008 1.01064 1.04403 1.43603 0.635914C1.86141 0.227799 2.42811 -5.46265e-05 3.01761 9.82353e-09H14.9825Z" fill="#B31918"/>
</svg>
