<svg width="17" height="20" viewBox="0 0 17 20" fill="none" xmlns="http://www.w3.org/2000/svg">
<path d="M8.19293 20C6.71462 18.8032 5.34436 17.4911 4.09646 16.0774C2.2238 13.9545 1.02867e-06 10.7929 1.02867e-06 7.78016C-0.000811123 6.24153 0.479297 4.73725 1.37957 3.4577C2.27983 2.17815 3.55979 1.18085 5.05746 0.592004C6.55512 0.00316238 8.20317 -0.150748 9.79303 0.14975C11.3829 0.450249 12.8431 1.19165 13.9888 2.28012C14.7517 3.00094 15.3563 3.85819 15.7677 4.80227C16.1792 5.74635 16.3893 6.7585 16.3859 7.78016C16.3859 10.7929 14.1621 13.9545 12.2894 16.0774C11.0415 17.4911 9.67123 18.8032 8.19293 20ZM8.19293 4.44748C7.26169 4.44748 6.36858 4.7986 5.7101 5.4236C5.05161 6.0486 4.68167 6.89628 4.68167 7.78016C4.68167 8.66404 5.05161 9.51173 5.7101 10.1367C6.36858 10.7617 7.26169 11.1128 8.19293 11.1128C9.12417 11.1128 10.0173 10.7617 10.6758 10.1367C11.3342 9.51173 11.7042 8.66404 11.7042 7.78016C11.7042 6.89628 11.3342 6.0486 10.6758 5.4236C10.0173 4.7986 9.12417 4.44748 8.19293 4.44748Z" fill="#B31918"/>
</svg>
