<svg width="19" height="24" viewBox="0 0 19 24" fill="none" xmlns="http://www.w3.org/2000/svg">
<path fill-rule="evenodd" clip-rule="evenodd" d="M8.42024 6.76072C8.73742 6.49432 9.2105 6.53548 9.47691 6.85266L13.4281 11.5569C13.6623 11.8358 13.6623 12.2427 13.4281 12.5216L9.47691 17.2258C9.2105 17.543 8.73742 17.5841 8.42024 17.3177C8.10306 17.0513 8.0619 16.5782 8.3283 16.2611L11.8743 12.0392L8.3283 7.81739C8.0619 7.50021 8.10306 7.02713 8.42024 6.76072Z" fill="black"/>
<path fill-rule="evenodd" clip-rule="evenodd" d="M0.25 12.0392C0.25 11.625 0.585786 11.2892 1 11.2892H12.8534C13.2676 11.2892 13.6034 11.625 13.6034 12.0392C13.6034 12.4534 13.2676 12.7892 12.8534 12.7892H1C0.585786 12.7892 0.25 12.4534 0.25 12.0392Z" fill="black"/>
<path fill-rule="evenodd" clip-rule="evenodd" d="M15.4172 1.75002C15.4172 1.75002 15.4172 1.75002 15.4172 1.75002L4.94405 1.80019C4.49185 1.80235 4.02592 2.01691 3.65993 2.45441C3.29074 2.89573 3.06689 3.51708 3.06689 4.18633V8.90308C3.06689 9.31729 2.73111 9.65308 2.31689 9.65308C1.90268 9.65308 1.56689 9.31729 1.56689 8.90308V4.18634C1.56689 4.18634 1.56689 4.18634 1.56689 4.18634C1.56689 3.19643 1.89519 2.22618 2.50942 1.49195C3.12685 0.753892 3.99551 0.304702 4.93686 0.300212C4.93687 0.300212 4.93685 0.300212 4.93686 0.300212L15.41 0.250034C15.8747 0.247818 16.331 0.354884 16.7515 0.560004C17.1714 0.764808 17.5441 1.06155 17.8523 1.42577C18.1603 1.78978 18.3996 2.21579 18.5617 2.67681C18.7237 3.13787 18.8068 3.62898 18.8082 4.12298L18.8609 19.8488C18.8626 20.3426 18.7827 20.8342 18.6237 21.2964C18.4647 21.7585 18.2284 22.1863 17.9231 22.5527C17.6176 22.9193 17.2474 23.2191 16.8293 23.4276C16.4107 23.6365 15.9554 23.7478 15.4909 23.75L15.4874 23.75H4.95099C4.00705 23.75 3.13457 23.3025 2.5141 22.5638C1.8969 21.829 1.56689 20.8563 1.56689 19.8639V15.1753C1.56689 14.7611 1.90268 14.4253 2.31689 14.4253C2.73111 14.4253 3.06689 14.7611 3.06689 15.1753V19.8639C3.06689 20.5349 3.29193 21.1576 3.6627 21.5991C4.03022 22.0366 4.49772 22.25 4.95099 22.25H15.4853C15.4848 22.25 15.4843 22.25 15.4838 22.25L15.4874 23V22.25H15.4853C15.7121 22.2487 15.9409 22.1945 16.1599 22.0853C16.3799 21.9756 16.5889 21.8106 16.7707 21.5925C16.9526 21.3741 17.102 21.1086 17.2052 20.8085C17.3085 20.5084 17.362 20.1837 17.3609 19.8538L17.3083 4.12769C17.3073 3.79774 17.2516 3.47323 17.1465 3.1742C17.0414 2.87513 16.8904 2.61116 16.7072 2.39474C16.5243 2.17852 16.3145 2.01574 16.094 1.90818C15.8741 1.80094 15.6446 1.74893 15.4172 1.75002Z" fill="black"/>
</svg>
