<svg width="24" height="24" viewBox="0 0 24 24" fill="none" xmlns="http://www.w3.org/2000/svg">
<path fill-rule="evenodd" clip-rule="evenodd" d="M12 22.8C17.9646 22.8 22.8 17.9646 22.8 12C22.8 6.0354 17.9646 1.2 12 1.2C6.0354 1.2 1.2 6.0354 1.2 12C1.2 17.9646 6.0354 22.8 12 22.8ZM12 24C18.6276 24 24 18.6276 24 12C24 5.3724 18.6276 0 12 0C5.3724 0 0 5.3724 0 12C0 18.6276 5.3724 24 12 24Z" fill="#B31918"/>
<path d="M4 19.1879C4 18.5681 4.49977 17.7393 5.1851 17.6709C10.3284 17.1585 13.665 17.2047 18.797 17.6823C19.0533 17.7065 19.2962 17.7974 19.496 17.9438C19.6958 18.0902 19.844 18.2858 19.9223 18.5067C20.0007 18.7277 20.0687 19.0494 20 19.2729C19.9313 19.4964 18.1933 20.8467 18 21C14 23.5 9.5 23.5 6 21C5.72667 20.772 4 19.5227 4 19.1879Z" fill="#B31918"/>
<path d="M16.8 9.6C16.8 10.873 16.2942 12.0939 15.3941 12.9941C14.4939 13.8943 13.273 14.4 12 14.4C10.7269 14.4 9.50601 13.8943 8.60584 12.9941C7.70566 12.0939 7.19995 10.873 7.19995 9.6C7.19995 8.32696 7.70566 7.10606 8.60584 6.20589C9.50601 5.30571 10.7269 4.8 12 4.8C13.273 4.8 14.4939 5.30571 15.3941 6.20589C16.2942 7.10606 16.8 8.32696 16.8 9.6V9.6Z" fill="#B31918"/>
</svg>
