<svg width="44" height="52" viewBox="0 0 44 52" fill="none" xmlns="http://www.w3.org/2000/svg">
<path d="M22 0.75C11.0625 0.75 2.31251 9.5 2.31251 20.4375C1.65626 20.4375 1.00001 20.875 0.56251 21.3125C0.12501 21.9688 -0.0937396 22.625 0.34376 23.2812L2.53126 29.8437C2.75001 30.7187 3.62501 31.375 4.50001 31.375H5.59814C6.01595 32.005 6.47314 32.6022 6.96095 33.1775C7.6347 34.2188 8.43532 35.1681 9.33657 36.0103C7.13966 37.8559 5.3727 40.1593 4.15939 42.7594C2.94607 45.3594 2.31574 48.1933 2.31251 51.0625H6.68751C6.68751 46.0969 9.05001 41.5119 13.0838 38.5784C15.1805 39.5971 17.4814 40.126 19.8125 40.125H24.1875C26.4899 40.1259 28.7632 39.6101 30.8397 38.6156C34.8297 41.4353 37.3125 46.1538 37.3125 51.0625H41.6875C41.6875 48.195 41.0518 45.3631 39.8263 42.7706C38.6008 40.1781 36.8159 37.8895 34.6 36.0694C35.5275 35.2119 36.35 34.245 37.0391 33.1775C37.5269 32.6022 37.9841 32.005 38.4019 31.375H39.5C40.375 31.375 41.25 30.7187 41.4688 29.8437L43.6563 23.2812C44.0938 22.625 43.875 21.9688 43.4375 21.3125C43 20.875 42.3438 20.4375 41.6875 20.4375C41.6875 9.5 32.9375 0.75 22 0.75ZM22 5.125C25.6409 5.10344 29.1685 6.39021 31.9404 8.75099C34.7124 11.1118 36.5442 14.3896 37.1025 17.9875C36.0844 16.6989 34.7863 15.659 33.3067 14.9465C31.8271 14.234 30.2047 13.8676 28.5625 13.875H15.4375C13.7953 13.8676 12.1729 14.234 10.6933 14.9465C9.21368 15.659 7.91564 16.6989 6.89751 17.9875C7.45578 14.3896 9.28766 11.1118 12.0596 8.75099C14.8315 6.39021 18.3591 5.10344 22 5.125ZM15.4375 18.25H28.5625C32.2813 18.25 35.125 21.0938 35.125 24.8125C35.125 26.3766 34.8056 27.8531 34.2369 29.1875H24.1875C22.875 29.1875 22 30.2812 22 31.375C22 32.6875 23.0938 33.5625 24.1875 33.5625H29.9188C27.5274 34.9985 24.7895 35.7549 22 35.75C17.4063 35.75 13.3309 33.7725 10.5375 30.6225C9.45022 28.8797 8.87419 26.8666 8.87501 24.8125C8.87501 21.0938 11.7188 18.25 15.4375 18.25Z" fill="#B31918"/>
</svg>
