<svg width="44" height="54" viewBox="0 0 44 54" fill="none" xmlns="http://www.w3.org/2000/svg">
<path d="M6.6875 0.75C3.08906 0.75 0.125 3.71406 0.125 7.3125V46.6875C0.125 50.2859 3.08906 53.25 6.6875 53.25H43.875V0.75H6.6875ZM6.6875 5.125H39.5V40.125H6.6875C5.94002 40.1343 5.19984 40.2735 4.5 40.5363V7.3125C4.5 6.07438 5.44938 5.125 6.6875 5.125ZM11.0625 11.6875V16.0625H35.125V11.6875H11.0625ZM6.6875 44.5H39.5V48.875H6.6875C5.44938 48.875 4.5 47.9256 4.5 46.6875C4.5 45.4494 5.44938 44.5 6.6875 44.5Z" fill="#B31918"/>
</svg>
