<svg width="40" height="54" viewBox="0 0 40 54" fill="none" xmlns="http://www.w3.org/2000/svg">
<path d="M7.0625 0.75C3.46406 0.75 0.5 3.71406 0.5 7.3125C0.5 10.1409 2.34625 12.5516 4.875 13.4659V40.5341C2.34625 41.4484 0.5 43.8591 0.5 46.6875C0.5 50.2859 3.46406 53.25 7.0625 53.25C10.6609 53.25 13.625 50.2859 13.625 46.6875C13.625 43.9094 11.84 41.56 9.38563 40.6041C9.70281 37.9134 10.7462 36.5878 12.3956 35.4766C14.36 34.1531 17.3766 33.3656 20.6644 32.6044C23.9566 31.8453 27.485 31.0578 30.4425 28.9819C33.0391 27.1619 35.0034 24.1803 35.43 20.0284C37.9981 19.1294 39.875 16.7188 39.875 13.875C39.875 10.2766 36.9109 7.3125 33.3125 7.3125C29.7141 7.3125 26.75 10.2766 26.75 13.875C26.75 16.6684 28.57 19.02 31.0572 19.9584C30.7575 22.8306 29.6462 24.2569 27.9794 25.4272C26.015 26.8053 22.9809 27.6147 19.7106 28.3672C16.4359 29.1197 12.89 29.7847 9.9325 31.7862C9.69406 31.9481 9.47313 32.1516 9.25 32.3331V13.4659C11.7788 12.5516 13.625 10.1409 13.625 7.3125C13.625 3.71406 10.6609 0.75 7.0625 0.75ZM7.0625 5.125C8.29406 5.125 9.25 6.08313 9.25 7.3125C9.25 8.54406 8.29187 9.5 7.0625 9.5C5.83094 9.5 4.875 8.54187 4.875 7.3125C4.875 6.08094 5.83313 5.125 7.0625 5.125ZM33.3125 11.6875C34.5441 11.6875 35.5 12.6456 35.5 13.875C35.5 15.1066 34.5419 16.0625 33.3125 16.0625C32.0809 16.0625 31.125 15.1044 31.125 13.875C31.125 12.6434 32.0831 11.6875 33.3125 11.6875ZM7.0625 44.5C8.29406 44.5 9.25 45.4581 9.25 46.6875C9.25 47.9191 8.29187 48.875 7.0625 48.875C5.83094 48.875 4.875 47.9169 4.875 46.6875C4.875 45.4559 5.83313 44.5 7.0625 44.5Z" fill="#B31918"/>
</svg>
