<svg width="40" height="54" viewBox="0 0 40 54" fill="none" xmlns="http://www.w3.org/2000/svg">
<path d="M20 0.75C9.15656 0.75 0.3125 9.59406 0.3125 20.4375C0.3125 24.6331 2.15875 28.9819 4.6875 32.88C6.56875 35.7762 8.81531 38.4406 11.25 40.4663V46.6875C11.25 49.0806 13.2319 51.0625 15.625 51.0625L17.8125 53.25H22.1875L24.375 51.0625C26.7681 51.0625 28.75 49.0806 28.75 46.6875V40.4663C31.1847 38.4406 33.4313 35.7762 35.3125 32.88C37.8413 28.9819 39.6875 24.6331 39.6875 20.4375C39.6875 9.59406 30.8434 0.75 20 0.75ZM20 5.125C28.4853 5.125 35.3125 11.9522 35.3125 20.4375C35.3125 23.3009 33.9016 27.0766 31.69 30.4869C29.7147 33.5275 27.1181 36.2378 24.7162 37.9375H15.2837C12.8819 36.2378 10.2853 33.5275 8.31 30.4869C6.09844 27.0766 4.6875 23.3009 4.6875 20.4375C4.6875 11.9522 11.5147 5.125 20 5.125ZM16.1719 42.3125H23.8281C23.9988 42.4328 24.1781 42.5181 24.375 42.5859V46.6875H15.625V42.5859C15.8192 42.5209 16.0033 42.4288 16.1719 42.3125Z" fill="#B31918"/>
</svg>
